<svg xmlns="http://www.w3.org/2000/svg" xmlns:xlink="http://www.w3.org/1999/xlink" width="500" zoomAndPan="magnify" viewBox="0 0 375 374.999991" height="500" preserveAspectRatio="xMidYMid meet" version="1.0"><defs><clipPath id="6274c99f31"><path d="M 53 68.953125 L 322 68.953125 L 322 305.953125 L 53 305.953125 Z M 53 68.953125 " clip-rule="nonzero"/></clipPath><clipPath id="485ce657db"><path d="M 163 124.03125 L 312.296875 124.03125 L 312.296875 250.78125 L 163 250.78125 Z M 163 124.03125 " clip-rule="nonzero"/></clipPath></defs><rect x="-37.5" width="450" fill="#ffffff" y="-37.499999" height="449.999989" fill-opacity="1"/><rect x="-37.5" width="450" fill="#ffffff" y="-37.499999" height="449.999989" fill-opacity="1"/><g clip-path="url(#6274c99f31)"><path fill="#000000" d="M 154.480469 229.640625 C 157.003906 229.640625 158.671875 231.3125 158.671875 233.835938 C 158.671875 236.359375 157.003906 238.03125 154.480469 238.03125 L 81.90625 238.03125 C 79.382812 238.03125 77.710938 236.359375 77.710938 233.835938 C 77.710938 231.3125 79.382812 229.640625 81.90625 229.640625 Z M 57.59375 194.402344 L 130.167969 194.402344 C 132.691406 194.402344 134.359375 196.074219 134.359375 198.597656 C 134.359375 200.984375 132.871094 202.605469 130.578125 202.78125 L 130.167969 202.792969 L 57.59375 202.792969 C 55.070312 202.792969 53.398438 201.121094 53.398438 198.597656 C 53.398438 196.214844 54.890625 194.589844 57.183594 194.417969 L 57.59375 194.402344 L 130.167969 194.402344 Z M 81.90625 159.167969 L 154.480469 159.167969 C 157.003906 159.167969 158.671875 160.839844 158.671875 163.363281 C 158.671875 165.746094 157.183594 167.371094 154.890625 167.542969 L 154.480469 167.558594 L 81.90625 167.558594 C 79.398438 167.558594 77.710938 165.871094 77.710938 163.363281 C 77.710938 160.980469 79.203125 159.355469 81.496094 159.183594 L 81.90625 159.167969 L 154.480469 159.167969 Z M 310.046875 152.699219 C 317.363281 166.996094 321.429688 183.183594 321.429688 200.269531 C 321.429688 258.597656 274.023438 306.015625 215.710938 305.984375 C 187.609375 305.984375 161.179688 295.082031 141.039062 274.941406 C 139.371094 273.269531 139.371094 270.746094 141.039062 269.074219 C 142.710938 267.402344 145.234375 267.402344 146.90625 269.074219 C 165.355469 287.542969 189.6875 297.609375 215.691406 297.609375 C 269.386719 297.609375 313.003906 253.980469 313.003906 200.269531 C 313.003906 185.617188 309.714844 171.671875 303.828125 159.179688 Z M 297.1875 166.097656 C 301.714844 176.714844 304.222656 188.402344 304.222656 200.679688 C 304.222656 249.355469 264.800781 288.789062 216.136719 288.789062 C 198.113281 288.789062 180.910156 283.332031 166.226562 273.269531 C 164.128906 272.023438 163.703125 269.5 164.964844 267.402344 C 166.226562 265.730469 168.75 265.304688 171.257812 266.53125 C 184.25 275.757812 199.785156 280.382812 216.136719 280.382812 C 260.179688 280.382812 295.835938 244.71875 295.835938 200.660156 C 295.835938 190.832031 294.0625 181.421875 290.816406 172.734375 Z M 296.089844 129.449219 C 299.828125 128.9375 303.476562 130.882812 305.125 134.269531 C 306.785156 137.667969 306.066406 141.738281 303.363281 144.363281 C 272.511719 175.296875 250.210938 200.382812 218.992188 231.667969 C 215.800781 234.90625 210.652344 235.144531 207.175781 232.210938 L 169.351562 200.199219 C 167.570312 198.710938 166.457031 196.574219 166.261719 194.253906 C 166.058594 191.9375 166.785156 189.640625 168.285156 187.867188 C 169.785156 186.082031 171.933594 184.980469 174.238281 184.785156 C 176.558594 184.59375 178.855469 185.332031 180.625 186.832031 L 212.265625 213.570312 C 240.0625 185.386719 261.871094 161.289062 290.996094 132.085938 C 292.351562 130.664062 294.144531 129.734375 296.089844 129.449219 Z M 216.136719 112.566406 C 238.359375 112.566406 258.65625 120.789062 274.152344 134.363281 L 268.355469 140.417969 C 254.375 128.28125 236.117188 120.941406 216.136719 120.941406 C 199.355469 120.941406 182.988281 125.988281 169.566406 136.054688 C 167.46875 137.316406 164.960938 136.890625 163.699219 135.21875 C 162.4375 133.546875 162.867188 130.613281 164.535156 129.351562 C 179.644531 118.433594 197.6875 112.566406 216.136719 112.566406 Z M 235.011719 68.953125 C 237.535156 68.953125 239.207031 70.625 239.207031 73.148438 C 239.207031 75.535156 237.71875 77.15625 235.425781 77.332031 L 235.011719 77.347656 L 219.90625 77.347656 L 219.90625 94.964844 C 244.5625 95.785156 266.8125 105.0625 284.265625 120.03125 L 285.351562 120.976562 L 286.175781 121.800781 L 280.324219 127.917969 C 262.957031 112.644531 240.300781 103.339844 215.691406 103.339844 C 188.855469 103.339844 163.6875 114.253906 144.808594 133.972656 C 143.140625 135.644531 140.617188 135.644531 138.945312 133.972656 C 137.273438 132.300781 137.273438 129.777344 138.945312 128.105469 C 157.898438 107.925781 182.898438 96.640625 210.007812 95.042969 L 211.515625 94.964844 L 211.515625 77.347656 L 196.835938 77.347656 C 194.3125 77.347656 192.640625 75.675781 192.640625 73.148438 C 192.640625 70.765625 194.132812 69.144531 196.421875 68.96875 L 196.835938 68.953125 Z M 235.011719 68.953125 " fill-opacity="1" fill-rule="evenodd"/></g><g clip-path="url(#485ce657db)"><path fill="#10c610" d="M 213.949219 250.769531 C 213.902344 250.769531 213.859375 250.769531 213.8125 250.769531 L 213.785156 250.769531 C 213.242188 250.753906 212.695312 250.65625 212.175781 250.472656 C 205 247.953125 200.050781 243.796875 193.925781 237.46875 C 190.144531 233.5625 186.660156 229.648438 183.566406 225.828125 L 183.546875 225.804688 C 176.289062 217.382812 170.734375 210.136719 164.371094 200.785156 C 162.433594 197.941406 162.714844 194.304688 165.203125 189.980469 L 165.226562 189.945312 C 166.125 188.265625 166.992188 186.980469 167.953125 185.898438 L 168.640625 185.125 L 168.59375 185.054688 C 171.582031 181.132812 176.054688 176.171875 181.253906 176.171875 C 181.898438 176.171875 182.550781 176.25 183.191406 176.40625 C 185.234375 176.90625 187.214844 178.277344 188.488281 180.082031 L 188.53125 180.144531 L 188.578125 180.199219 C 191.054688 182.988281 193.441406 185.992188 195.746094 188.898438 C 199.023438 193.019531 202.40625 197.277344 206.164062 201.085938 C 206.316406 201.253906 206.816406 201.777344 207.226562 202.097656 C 208.453125 203.0625 209.585938 203.859375 211.046875 203.859375 C 212.65625 203.859375 214.296875 202.925781 217.109375 200.414062 C 224.074219 194.1875 231.058594 187.179688 237.808594 180.398438 C 242.910156 175.277344 248.183594 169.980469 253.457031 165.015625 C 260.089844 158.765625 278.179688 142.984375 285.332031 137.007812 C 291.148438 132.144531 296.425781 127.835938 302.121094 124.324219 C 302.4375 124.128906 302.847656 124.03125 303.34375 124.03125 C 305.117188 124.03125 307.488281 125.308594 308.585938 126.503906 C 310.023438 128.066406 310.746094 128.851562 311.15625 129.730469 C 311.566406 130.617188 311.722656 131.730469 312.039062 133.949219 C 312.179688 134.949219 311.855469 136.007812 311.171875 136.773438 C 303.878906 144.945312 291.289062 159.34375 280.179688 172.046875 L 280.152344 172.074219 C 274.480469 178.5625 269.121094 184.691406 265.308594 189.027344 C 255.695312 199.957031 248.824219 209.324219 240.871094 220.164062 C 236.941406 225.523438 232.878906 231.0625 228.050781 237.390625 L 228.015625 237.441406 C 224.644531 242.3125 221.492188 246.019531 218.382812 248.773438 C 217.761719 249.324219 217.078125 249.800781 216.355469 250.183594 C 215.628906 250.566406 214.796875 250.769531 213.949219 250.769531 " fill-opacity="1" fill-rule="nonzero"/></g></svg>